<?xml version="1.0" standalone="no"?>
<!DOCTYPE svg PUBLIC "-//W3C//DTD SVG 20010904//EN"
 "http://www.w3.org/TR/2001/REC-SVG-20010904/DTD/svg10.dtd">
<svg version="1.0" xmlns="http://www.w3.org/2000/svg"
 width="310.000000pt" height="83.000000pt" viewBox="0 0 310.000000 83.000000"
 preserveAspectRatio="xMidYMid meet">

<g transform="translate(0.000000,83.000000) scale(0.100000,-0.100000)"
fill="#000000" stroke="none">
<path d="M905 775 c-49 -12 -207 -50 -350 -84 -143 -35 -264 -64 -270 -67 -14
-5 104 4 340 26 110 10 234 22 275 25 l76 7 21 59 c14 39 18 59 10 58 -7 0
-52 -11 -102 -24z"/>
<path d="M79 576 l-46 -11 266 -204 c146 -112 250 -186 231 -165 -106 122
-376 394 -389 393 -9 -1 -37 -6 -62 -13z"/>
<path d="M800 349 c-74 -132 -136 -245 -138 -252 -2 -11 66 -73 72 -65 5 6
205 552 203 554 -1 1 -63 -106 -137 -237z"/>
<path d="M2245 568 c-51 -45 -42 -144 16 -168 49 -21 119 10 119 52 0 29 -44
23 -59 -8 -7 -16 -18 -24 -29 -22 -14 3 -17 14 -17 68 0 55 3 65 18 68 12 3
20 -4 24 -17 4 -15 13 -21 34 -21 35 0 37 13 4 45 -31 32 -75 32 -110 3z"/>
<path d="M2544 582 c-5 -4 -16 -22 -23 -39 -18 -44 -35 -43 -27 2 l7 35 -41 0
c-38 0 -52 -11 -30 -25 6 -3 10 -33 10 -65 0 -32 -4 -62 -10 -65 -22 -13 -8
-25 30 -25 l40 0 -6 40 c-9 52 6 51 31 -2 14 -29 27 -44 43 -46 32 -5 29 38
-6 76 l-28 30 27 26 c15 15 26 35 25 44 -3 19 -25 26 -42 14z"/>
<path d="M960 570 c0 -5 5 -10 10 -10 6 0 10 -30 10 -70 0 -40 -4 -70 -10 -70
-5 0 -10 -4 -10 -10 0 -5 20 -10 45 -10 42 0 58 11 35 25 -5 3 -10 17 -10 31
0 19 5 24 26 24 25 0 26 -2 21 -40 l-5 -40 39 0 c37 0 51 12 29 25 -5 3 -10
33 -10 65 0 32 5 62 10 65 22 14 8 25 -30 25 l-41 0 7 -36 c6 -33 5 -36 -17
-32 -20 2 -24 8 -21 36 2 31 1 32 -38 32 -22 0 -40 -4 -40 -10z"/>
<path d="M1190 571 c0 -6 5 -13 10 -16 6 -3 10 -33 10 -65 0 -32 -4 -62 -10
-65 -26 -16 -3 -25 65 -25 73 0 75 1 75 25 0 16 -6 25 -15 25 -8 0 -15 -4 -15
-10 0 -5 -11 -10 -25 -10 -32 0 -36 39 -5 47 11 3 20 12 20 19 0 8 -9 14 -20
14 -13 0 -20 7 -20 20 0 15 7 20 25 20 14 0 25 -4 25 -10 0 -5 7 -10 15 -10 9
0 15 9 15 25 0 24 -2 25 -75 25 -41 0 -75 -4 -75 -9z"/>
<path d="M1380 571 c0 -6 5 -13 10 -16 6 -3 10 -33 10 -65 0 -32 -4 -62 -10
-65 -26 -16 -4 -25 58 -25 81 0 108 14 98 53 -3 14 -15 29 -27 32 l-21 7 21
15 c25 17 28 58 5 67 -25 10 -144 7 -144 -3z m108 -44 c2 -12 -3 -17 -17 -17
-15 0 -21 6 -21 21 0 25 33 22 38 -4z m-14 -53 c24 -9 20 -44 -4 -44 -15 0
-20 7 -20 25 0 27 1 28 24 19z"/>
<path d="M1580 571 c0 -6 5 -13 10 -16 6 -3 10 -33 10 -65 0 -32 -4 -62 -10
-65 -26 -16 -4 -25 58 -25 54 0 72 4 85 18 37 40 5 92 -55 92 -21 0 -28 5 -28
19 0 11 5 23 10 26 23 14 7 25 -35 25 -25 0 -45 -4 -45 -9z m108 -119 c3 -17
-2 -22 -17 -22 -16 0 -21 6 -21 26 0 33 33 30 38 -4z"/>
<path d="M1802 568 c-21 -21 -14 -57 12 -69 l25 -12 -30 -24 c-37 -31 -41 -76
-7 -71 15 2 29 16 41 41 22 48 42 49 33 2 l-7 -35 41 0 c38 0 52 11 30 25 -5
3 -10 33 -10 65 0 32 5 62 10 65 6 3 10 10 10 16 0 14 -134 11 -148 -3z m78
-43 c0 -27 -6 -30 -29 -16 -17 11 -7 41 14 41 9 0 15 -9 15 -25z"/>
<path d="M1990 571 c0 -6 5 -13 10 -16 6 -3 10 -33 10 -65 0 -32 -4 -62 -10
-65 -22 -13 -8 -25 30 -25 l40 0 -6 40 c-6 38 -5 40 20 40 21 0 26 -5 26 -24
0 -14 -4 -28 -10 -31 -23 -14 -7 -25 35 -25 25 0 45 5 45 10 0 6 -4 10 -10 10
-6 0 -10 28 -10 64 0 36 5 68 10 71 23 14 7 25 -35 25 -42 0 -45 -2 -35 -19
18 -34 12 -51 -16 -51 -25 0 -26 2 -20 35 l7 35 -41 0 c-22 0 -40 -4 -40 -9z"/>
<path d="M2630 571 c0 -6 5 -13 10 -16 6 -3 10 -33 10 -65 0 -32 -4 -62 -10
-65 -20 -13 -9 -25 23 -25 28 0 35 6 55 48 l22 47 -5 -47 -5 -48 40 0 c38 0
52 12 30 25 -5 3 -10 33 -10 65 0 32 5 62 10 65 20 12 9 25 -21 25 -26 0 -33
-6 -50 -45 -11 -25 -23 -45 -26 -45 -3 0 -3 20 0 45 l7 45 -40 0 c-22 0 -40
-4 -40 -9z"/>
<path d="M2850 571 c0 -6 5 -13 10 -16 6 -3 10 -35 10 -71 0 -36 -4 -64 -10
-64 -5 0 -10 -4 -10 -10 0 -6 32 -10 75 -10 73 0 75 1 75 25 0 16 -6 25 -15
25 -8 0 -15 -4 -15 -10 0 -5 -11 -10 -25 -10 -32 0 -36 39 -5 47 11 3 20 12
20 19 0 8 -9 14 -20 14 -13 0 -20 7 -20 20 0 15 7 20 25 20 14 0 25 -4 25 -10
0 -5 5 -10 10 -10 6 0 10 11 10 25 0 24 -2 25 -70 25 -38 0 -70 -4 -70 -9z"/>
</g>
</svg>
